<!DOCTYPE svg PUBLIC "-//W3C//DTD SVG 1.1//EN" "http://www.w3.org/Graphics/SVG/1.1/DTD/svg11.dtd">
<!-- Uploaded to: SVG Repo, www.svgrepo.com, Transformed by: SVG Repo Mixer Tools -->
<svg width="220px" height="220px" viewBox="-15.36 -15.36 94.72 94.72" xmlns="http://www.w3.org/2000/svg" fill="#000000">
<g id="SVGRepo_bgCarrier" stroke-width="0" transform="translate(0,0), scale(1)">
<rect x="-15.36" y="-15.36" width="94.72" height="94.72" rx="47.36" fill="#deddda" strokewidth="0"/>
</g>
<g id="SVGRepo_tracerCarrier" stroke-linecap="round" stroke-linejoin="round" stroke="#CCCCCC" stroke-width="0.64"/>
<g id="SVGRepo_iconCarrier"> <g fill="none" fill-rule="evenodd"> <g transform="rotate(110 4.339 30.802)"> <polygon fill="#80D25B" points="12.83 3.573 22.112 .194 27.648 16 17.548 16.535"/> <path fill="#22BA8E" d="M8.62749877,16 L27.6274988,16 L17.6274988,26 L8.62749877,26 L8.62749877,30 L0,21 L8.62749877,12 L8.62749877,16 Z"/> </g> <g transform="scale(1 -1) rotate(-70 -11.107 -40.767)"> <polygon fill="#80D25B" points="12.83 3.573 22.112 .194 27.648 16 17.548 16.535"/> <path fill="#22BA8E" d="M8.62749877,16 L27.6274988,16 L17.6274988,26 L8.62749877,26 L8.62749877,30 L0,21 L8.62749877,12 L8.62749877,16 Z"/> </g> <g transform="scale(1 -1) rotate(54 55.492 16.03)"> <polygon fill="#80D25B" points="12.83 3.573 22.112 .194 27.648 16 17.548 16.535"/> <path fill="#22BA8E" d="M8.62749877,16 L27.6274988,16 L17.6274988,26 L8.62749877,26 L8.62749877,30 L0,21 L8.62749877,12 L8.62749877,16 Z"/> </g> </g> </g>
</svg>